<?xml version="1.0" encoding="iso-8859-1"?>
<!-- Uploaded to: SVG Repo, www.svgrepo.com, Generator: SVG Repo Mixer Tools -->
<svg fill="#000000" height="800px" width="800px" version="1.1" id="Layer_1" xmlns="http://www.w3.org/2000/svg" xmlns:xlink="http://www.w3.org/1999/xlink" 
	 viewBox="0 0 512 512" xml:space="preserve">
<g>
	<g>
		<g>
			<path d="M256,0C114.618,0,0,114.618,0,256s114.618,256,256,256s256-114.618,256-256S397.382,0,256,0z M256,469.333
				c-117.818,0-213.333-95.515-213.333-213.333S138.182,42.667,256,42.667S469.333,138.182,469.333,256S373.818,469.333,256,469.333
				z"/>
			<path d="M372.693,131.243L202.027,237.909c-13.369,8.356-13.369,27.826,0,36.181l170.667,106.667
				c14.209,8.881,32.64-1.335,32.64-18.091V149.333C405.333,132.577,386.902,122.362,372.693,131.243z M362.667,324.176L253.585,256
				l109.082-68.176V324.176z"/>
			<path d="M128,128c-11.782,0-21.333,9.551-21.333,21.333v213.333c0,11.782,9.551,21.333,21.333,21.333
				c11.782,0,21.333-9.551,21.333-21.333V149.333C149.333,137.551,139.782,128,128,128z"/>
		</g>
	</g>
</g>
</svg>