<?xml version="1.0" encoding="iso-8859-1"?>
<!-- Uploaded to: SVG Repo, www.svgrepo.com, Generator: SVG Repo Mixer Tools -->
<svg fill="#000000" height="800px" width="800px" version="1.1" id="Layer_1" xmlns="http://www.w3.org/2000/svg" xmlns:xlink="http://www.w3.org/1999/xlink" 
	 viewBox="0 0 512 512" xml:space="preserve">
<g>
	<g>
		<g>
			<path d="M418.991,239.611l-128-106.667C277.096,121.365,256,131.246,256,149.333v61.119l-93.009-77.508
				C149.096,121.365,128,131.246,128,149.333v213.333c0,18.087,21.096,27.968,34.991,16.389L256,301.548v61.119
				c0,18.087,21.096,27.968,34.991,16.389l128-106.667C429.225,263.86,429.225,248.14,418.991,239.611z M170.667,317.119V194.881
				L244.01,256L170.667,317.119z M298.667,317.119V194.881L372.01,256L298.667,317.119z"/>
			<path d="M256,0C114.618,0,0,114.618,0,256s114.618,256,256,256s256-114.618,256-256S397.382,0,256,0z M256,469.333
				c-117.818,0-213.333-95.515-213.333-213.333S138.182,42.667,256,42.667S469.333,138.182,469.333,256S373.818,469.333,256,469.333
				z"/>
		</g>
	</g>
</g>
</svg>