<?xml version="1.0" encoding="iso-8859-1"?>
<!-- Uploaded to: SVG Repo, www.svgrepo.com, Generator: SVG Repo Mixer Tools -->
<svg fill="#000000" height="800px" width="800px" version="1.1" id="Layer_1" xmlns="http://www.w3.org/2000/svg" xmlns:xlink="http://www.w3.org/1999/xlink" 
	 viewBox="0 0 512 512" xml:space="preserve">
<g>
	<g>
		<g>
			<path d="M349.009,132.945L256,210.452v-61.119c0-18.087-21.096-27.968-34.991-16.389l-128,106.667
				c-10.235,8.529-10.235,24.248,0,32.777l128,106.667C234.904,390.635,256,380.754,256,362.667v-61.119l93.009,77.508
				C362.904,390.635,384,380.754,384,362.667V149.333C384,131.246,362.904,121.365,349.009,132.945z M213.333,317.119L139.99,256
				l73.343-61.119V317.119z M341.333,317.119L267.99,256l73.343-61.119V317.119z"/>
			<path d="M256,0C114.618,0,0,114.618,0,256s114.618,256,256,256s256-114.618,256-256S397.382,0,256,0z M256,469.333
				c-117.818,0-213.333-95.515-213.333-213.333S138.182,42.667,256,42.667S469.333,138.182,469.333,256S373.818,469.333,256,469.333
				z"/>
		</g>
	</g>
</g>
</svg>
